<?xml version="1.0" encoding="UTF-8"?>
<svg id="Layer_2" data-name="Layer 2" xmlns="http://www.w3.org/2000/svg" viewBox="0 0 334.25 334.35">
  <defs>
    <style>
      .cls-1 {
        stroke-width: 0px;
      }
    </style>
  </defs>
  <g id="Layer_1-2" data-name="Layer 1">
    <g>
      <path class="cls-1" d="m0,196.32c0-33.45-.01-66.89,0-100.34.01-21.75,15.46-37.17,37.24-37.17,60.39-.01,120.78-.03,181.17.07,3.15,0,5.27-.95,7.44-3.15,15.53-15.71,31.18-31.29,46.81-46.9,11.73-11.72,25.44-11.78,37.18-.14,5.5,5.45,10.98,10.91,16.41,16.42,10.7,10.86,10.67,25.02-.13,35.87-15.85,15.92-31.71,31.82-47.67,47.62-2.11,2.09-3.03,4.11-3.02,7.12.09,60.52.08,121.05.06,181.57,0,19.09-11.93,33.37-30.65,36.7-1.95.35-3.97.34-5.96.34-67.38.02-134.75.03-202.13,0-21.2,0-36.72-15.63-36.73-36.93-.02-33.69,0-67.39,0-101.08Zm251.56-60.6c-1.64,1.57-2.62,2.48-3.57,3.42-21.44,21.44-42.85,42.9-64.35,64.28-1.81,1.8-4,3.52-6.34,4.44-21.56,8.4-43.18,16.64-64.82,24.81-1.9.72-4.18,1.09-6.18.82-8.81-1.21-12.94-9.71-8.83-18.1,9.64-19.68,19.34-39.33,29.13-58.93,1.09-2.18,2.72-4.18,4.45-5.92,21.39-21.49,42.84-42.91,64.27-64.36.92-.92,1.78-1.92,3.16-3.42h-4.73c-51.65,0-103.3,0-154.95,0-10.37,0-14.87,4.46-14.87,14.74,0,66.01,0,132.02,0,198.03,0,10.53,4.42,14.9,15.09,14.9,65.87,0,131.75,0,197.62,0,10.56,0,14.91-4.4,14.91-15.07,0-51.66,0-103.32,0-154.98,0-1.23,0-2.47,0-4.64Zm-77.66,42.55c34.85-34.86,69.91-69.94,104.59-104.62-5.88-5.9-11.99-12.04-17.56-17.63-34.83,34.83-69.89,69.88-104.64,104.63,5.73,5.74,11.78,11.8,17.61,17.63Zm122.42-122.76c4.35-4.34,8.71-8.7,12.47-12.46-5.8-5.84-11.88-11.96-17.44-17.55-4.1,4.01-8.49,8.31-12.66,12.39,5.87,5.86,11.91,11.9,17.64,17.62Zm-164.11,143.9c7.18-2.75,13.42-5.14,19.18-7.34-3.46-3.56-6.79-6.99-10.32-10.62-2.76,5.6-5.58,11.3-8.86,17.96Z"/>
      <path class="cls-1" d="m137.37,286.42c-29.82,0-59.64.02-89.46-.02-5.92,0-11.03-4.37-11.88-9.9-.94-6.12,2.66-11.91,8.57-13.58,1.29-.37,2.7-.41,4.06-.41,59.39-.02,118.79-.02,178.18,0,7.53,0,12.79,5.07,12.72,12.14-.07,6.84-5.35,11.77-12.71,11.78-29.82.02-59.64,0-89.46,0Z"/>
    </g>
  </g>
</svg>