<?xml version="1.0" encoding="UTF-8"?>
<svg id="Layer_2" data-name="Layer 2" xmlns="http://www.w3.org/2000/svg" viewBox="0 0 335.34 335.33">
  <defs>
    <style>
      .cls-1 {
        stroke-width: 0px;
      }
    </style>
  </defs>
  <g id="Layer_1-2" data-name="Layer 1">
    <path class="cls-1" d="m71.87,23.95c0-3.88,0-7.24,0-10.59C71.89,5.33,76.59.04,83.73,0c7.3-.04,12.05,5.3,12.06,13.55,0,3.34,0,6.68,0,10.2h59.91c0-3.62-.01-7.3,0-10.98C155.75,5.16,160.68-.04,167.79,0c6.88.04,11.8,5.28,11.84,12.64.02,3.6,0,7.2,0,11.05h59.91c0-3.87-.03-7.69,0-11.52C239.63,5.14,244.67.01,251.47,0c6.79-.01,11.91,5.13,11.99,12.11.05,3.74,0,7.48,0,11.84,1.42,0,2.72,0,4.02,0,10.73,0,21.46-.05,32.18.01,19.75.11,35.62,15.93,35.63,35.73.05,79.96.05,159.93,0,239.89-.01,19.79-15.89,35.7-35.65,35.71-87.95.05-175.89.05-263.84,0-19.97-.01-35.78-15.92-35.79-35.96C0,219.5-.01,139.66.03,59.82c.01-19.99,15.88-35.78,35.88-35.86,11.83-.05,23.66,0,35.96,0Zm239.53,84.06H23.94v4.31c0,61.36,0,122.73,0,184.09,0,10.59,4.4,14.98,14.99,14.98,85.81,0,171.62,0,257.43,0,10.66,0,15.04-4.35,15.04-14.93,0-61.36,0-122.73,0-184.09,0-1.36,0-2.72,0-4.36Zm-155.69-59.86h-59.91c0,3.62,0,6.97,0,10.33-.02,7.98-4.77,13.32-11.88,13.35-7.14.03-12.02-5.31-12.04-13.19,0-3.56,0-7.11,0-10.75-12.34,0-24.06-.1-35.78.04-6.43.07-11.6,4.39-11.95,10.65-.46,8.29-.11,16.62-.11,25.05h287.37c0-7.54.03-14.87,0-22.2-.04-8.58-4.91-13.5-13.43-13.53-10.23-.04-20.45-.01-30.68,0-1.2,0-2.4.11-3.82.18,0,3.91.02,7.51,0,11.11-.04,7.35-4.96,12.61-11.82,12.66-7.06.05-12.06-5.22-12.09-12.76-.02-3.68,0-7.37,0-10.99h-59.92c0,4.14.07,8.1-.01,12.06-.14,6.68-5.37,11.72-12.02,11.7-6.59-.03-11.76-5.15-11.87-11.85-.06-3.85-.01-7.71-.01-11.83Z"/>
  </g>
</svg>