<?xml version="1.0" encoding="UTF-8"?>
<svg id="Layer_2" data-name="Layer 2" xmlns="http://www.w3.org/2000/svg" viewBox="0 0 335.42 335.29">
  <defs>
    <style>
      .cls-1 {
        stroke-width: 0px;
      }
    </style>
  </defs>
  <g id="Layer_1-2" data-name="Layer 1">
    <g>
      <path class="cls-1" d="m167.7,335.29C76.07,335.5.64,260.53,0,169.55-.65,75.97,74.54.26,166.87,0c93.14-.26,168.4,74.57,168.55,167.44.15,92.77-74.66,167.64-167.72,167.85ZM24.68,179.6c2.94,30.5,13.84,57.16,33.6,80.8,2.59-2.69,4.86-5.15,7.25-7.5,5.45-5.36,12.66-5.54,17.62-.53,4.84,4.89,4.71,12.08-.53,17.34-2.43,2.44-5.23,4.51-8.15,6.99,24.3,20.19,50.91,31.14,81.33,33.98,0-3.93-.02-7.41,0-10.89.06-7.26,5.12-12.42,12.09-12.38,6.75.05,11.75,5.23,11.83,12.28.04,3.59,0,7.17,0,11,30.53-2.9,57.17-13.85,80.93-33.7-2.79-2.6-5.32-4.81-7.67-7.19-5.35-5.42-5.48-12.69-.44-17.62,4.91-4.8,12.09-4.64,17.33.63,2.42,2.43,4.45,5.26,6.89,8.18,20.25-24.43,31.22-51.02,34.03-81.41-3.97,0-7.45.03-10.93,0-7.07-.07-12.26-5.05-12.33-11.78-.07-6.98,5.09-12.07,12.33-12.13,3.58-.03,7.16,0,10.96,0-2.95-30.53-13.84-57.19-33.63-80.83-2.57,2.69-4.74,5.09-7.04,7.36-5.54,5.46-12.6,5.79-17.62.87-5.17-5.05-4.98-12.27.71-17.85,2.36-2.31,5.09-4.24,7.94-6.57-24.51-20.26-51.07-31.31-81.47-34.04,0,3.98.03,7.46,0,10.94-.07,7.05-5.08,12.24-11.81,12.3-6.92.06-12.04-5.17-12.1-12.38-.03-3.57,0-7.14,0-10.94-30.56,3-57.22,13.85-81,33.8,2.88,2.64,5.46,4.8,7.81,7.19,5.16,5.28,5.3,12.5.47,17.36-4.85,4.88-12.12,4.82-17.34-.35-2.46-2.43-4.59-5.2-7.12-8.1-20.09,24.15-31.07,50.77-33.9,81.24,3.99,0,7.58-.04,11.18,0,6.95.09,12.11,5.24,12.09,12.01-.02,6.76-5.19,11.82-12.2,11.9-3.59.04-7.18,0-11.1,0Z"/>
      <path class="cls-1" d="m179.73,116.11c0,14.34-.09,28.69.11,43.03.03,1.96,1,4.36,2.36,5.76,9.82,10.11,19.87,19.98,29.79,30,4.09,4.13,4.87,8.61,2.59,13.27-2.37,4.84-7.31,8.06-12.36,7.26-2.41-.38-5.08-1.63-6.82-3.33-12.14-11.84-24.19-23.79-35.94-36.02-2.02-2.1-3.48-5.7-3.5-8.62-.25-31.8-.17-63.6-.14-95.41,0-7.03,5.1-12.17,11.89-12.18,6.8-.02,11.98,5.11,12,12.09.05,14.72.02,29.43.02,44.15Z"/>
    </g>
  </g>
</svg>