<?xml version="1.0" encoding="UTF-8"?>
<svg id="Layer_2" data-name="Layer 2" xmlns="http://www.w3.org/2000/svg" viewBox="0 0 289.15 335.32">
  <defs>
    <style>
      .cls-1 {
        stroke-width: 0px;
      }
    </style>
  </defs>
  <g id="Layer_1-2" data-name="Layer 1">
    <g>
      <path class="cls-1" d="m47.91,23.95c0-4.31-.05-8.16.01-12C48.03,5,53.2-.07,60.06,0c6.59.06,11.67,5.19,11.77,11.96.06,3.84.01,7.69.01,11.76h35.96c0-3.93-.04-7.76,0-11.59C107.89,5.12,112.96,0,119.77,0c6.78,0,11.86,5.15,11.95,12.16.04,3.74,0,7.47,0,11.5h35.96c0-3.73-.03-7.55,0-11.36C167.75,5.22,172.72.06,179.48,0c6.96-.06,12.06,5.11,12.12,12.36.03,3.72,0,7.44,0,11.59,1.74,0,3.2.12,4.64-.02,27.06-2.68,45.24,15.96,43.52,43.49-1.26,20.13-.25,40.4-.25,60.6v3.9c.46.29.67.54.85.52,10.2-1.04,18.01,3.2,24.7,10.58,5.19,5.72,10.92,10.95,16.32,16.48,10.37,10.6,10.38,24.74-.09,35.31-13.07,13.21-26.23,26.33-39.44,39.4-1.75,1.73-2.4,3.47-2.39,5.89.08,19.46.07,38.91.04,58.37-.03,21.28-15.53,36.83-36.79,36.84-55.38.02-110.75.03-166.13,0C15.62,335.29.02,319.64.01,298.62c-.02-79.32-.02-158.65,0-237.97,0-21.03,15.6-36.64,36.56-36.69,3.6-.01,7.21,0,11.34,0Zm0,23.93c-3.83,0-7.18-.02-10.52,0-8.57.06-13.45,4.9-13.45,13.5-.01,78.84-.01,157.68,0,236.52,0,8.53,4.95,13.47,13.49,13.48,54.89.02,109.78.02,164.67,0,8.58,0,13.45-4.9,13.48-13.49.04-11.23.02-22.45,0-33.68,0-.92-.16-1.83-.3-3.38-8.28,8.3-16,16.26-24.01,23.91-2.16,2.06-5.04,4.1-7.86,4.61-17.03,3.06-34.11,5.82-51.22,8.37-9.14,1.36-15.78-6.67-13.4-15.68.56-2.11,1.12-4.21,1.76-6.61h-4.49c-22.21,0-44.41.01-66.62-.02-1.72,0-3.53-.05-5.15-.56-5.8-1.8-9.17-7.41-8.27-13.4.83-5.58,5.88-9.91,11.84-9.92,25.07-.04,50.15-.02,75.22-.02,1.48,0,2.95,0,4.38,0,3.29-8.21,3.29-17.49,11.21-23.98-2.44,0-3.8,0-5.16,0-28.07,0-56.14,0-84.2-.02-1.6,0-3.28-.02-4.8-.47-5.8-1.7-9.27-7.22-8.51-13.26.72-5.73,5.83-10.16,11.99-10.16,33.06-.03,66.12-.01,99.17-.02,5.11,0,10.81,1.33,15.17-.51,4.48-1.89,7.64-6.91,11.41-10.52,4.18-4,8.41-7.94,12.62-11.91-.24-.34-.48-.69-.72-1.03-1.33,0-2.66,0-4,0-44.04,0-88.07,0-132.11-.02-1.72,0-3.53-.03-5.16-.52-5.82-1.76-9.21-7.31-8.37-13.34.79-5.72,5.9-10.03,12.12-10.03,45.91-.02,91.81.04,137.72-.07,6.97-.02,13.62-.07,17.06,7.93,3.65-3.71,6.7-7.02,9.99-10.06,1.98-1.83,2.86-3.72,2.77-6.48-.21-6.73-.07-13.47-.07-20.21,0-21.83.01-43.66,0-65.49,0-6.81-3.17-11.74-9.12-12.81-4.79-.86-9.78-.57-14.85-.8,0,4.48.04,8.21,0,11.95-.08,7-5.17,12.16-11.94,12.17-6.76,0-11.89-5.17-11.97-12.14-.04-3.83,0-7.66,0-11.56h-35.96c0,3.84.02,7.44,0,11.03-.04,7.36-4.95,12.62-11.81,12.67-7.06.06-12.07-5.21-12.1-12.76-.02-3.68,0-7.37,0-11h-35.96c0,3.4,0,6.61,0,9.83,0,8.6-4.65,13.97-12.06,13.93-7.22-.04-11.86-5.41-11.87-13.75,0-3.23,0-6.46,0-10.2Zm196.3,109.03c-25.49,25.49-51.02,51.02-76.24,76.24,6.62,6.62,13.46,13.45,20.11,20.1,25.29-25.28,50.84-50.82,76.27-76.25-6.59-6.58-13.37-13.34-20.14-20.1Zm-92.06,96.47c-1.65,5.77-3.28,11.48-5.01,17.57,7.04-1.17,13.27-2.21,19.3-3.21-4.82-4.84-9.43-9.47-14.29-14.36Z"/>
      <path class="cls-1" d="m119.76,131.71c-23.95,0-47.91.02-71.86-.02-6.14-.01-11.24-4.51-11.92-10.25-.71-6.08,2.8-11.56,8.59-13.21,1.29-.37,2.7-.42,4.06-.42,47.41-.02,94.81-.02,142.22-.01,7.53,0,12.79,5.06,12.72,12.13-.07,6.84-5.34,11.77-12.71,11.78-23.7.02-47.41,0-71.11,0Z"/>
    </g>
  </g>
</svg>