<?xml version="1.0" encoding="UTF-8"?>
<svg id="Layer_2" data-name="Layer 2" xmlns="http://www.w3.org/2000/svg" viewBox="0 0 335.06 281.36">
  <defs>
    <style>
      .cls-1 {
        stroke-width: 0px;
      }
    </style>
  </defs>
  <g id="Layer_1-2" data-name="Layer 1">
    <g>
      <path class="cls-1" d="m47.54,197.14c0-15.97-.02-31.93,0-47.9.02-11.6,4.62-21.09,13.71-28.19,32.32-25.26,64.73-50.41,97.12-75.57,6.62-5.14,11.29-5.18,17.88-.05,32.39,25.17,64.78,50.33,97.1,75.58,9.21,7.19,13.77,16.81,13.77,28.55,0,31.68.02,63.36-.01,95.04-.02,21.06-15.58,36.66-36.54,36.72-7.86.02-15.72.05-23.58,0-19.75-.13-35.56-15.95-35.68-35.71-.05-7.61.03-15.22-.02-22.82-.05-8.3-5-13.27-13.27-13.32-7.24-.04-14.47-.06-21.71,0-7.82.07-12.88,5.1-12.95,12.88-.07,7.73.02,15.47-.03,23.2-.12,19.8-15.89,35.63-35.62,35.77-8.23.06-16.47.06-24.7,0-19.51-.15-35.38-16.01-35.47-35.53-.08-16.21-.02-32.43-.02-48.64Zm215.65.34c0-15.47-.06-30.94.04-46.41.03-5.16-1.9-9.06-5.97-12.21-29.18-22.62-58.32-45.27-87.42-68-1.99-1.56-3.24-1.35-5.1.1-29.2,22.79-58.44,45.52-87.71,68.23-3.85,2.98-5.6,6.76-5.59,11.62.05,31.07.01,62.13.04,93.2,0,8.31,4.98,13.32,13.21,13.38,7.11.05,14.23.04,21.34,0,8.49-.05,13.34-4.99,13.38-13.6.03-7.49-.03-14.97.01-22.46.11-19.96,15.93-35.71,35.98-35.8,8.11-.04,16.22-.05,24.33,0,19.53.14,35.34,15.97,35.49,35.53.06,7.74-.03,15.47.02,23.21.06,8.04,5.06,13.04,13.11,13.11,6.99.06,13.98.03,20.96,0,9.07-.03,13.85-4.8,13.86-13.87.02-15.35,0-30.69,0-46.04Z"/>
      <path class="cls-1" d="m166.59,0c8.34.26,15.69,2.65,22.14,7.59,46.84,35.85,93.68,71.7,140.5,107.57,5.34,4.09,7.05,9.39,4.97,14.74-1.95,5.03-7.12,8.47-12.46,7.49-2.79-.52-5.64-2.02-7.93-3.77-37.59-28.66-75.1-57.42-112.62-86.17-8.32-6.37-16.63-12.75-24.96-19.1-7.38-5.62-11.82-5.57-19.1.07C111.58,63.71,66.04,99,20.49,134.28c-5.05,3.91-10.26,4.42-14.89,1.52-4.33-2.71-6.73-7.85-5.08-12.94.9-2.76,2.87-5.61,5.16-7.4,37.26-29.08,74.65-58,112.02-86.96,8.58-6.65,17.21-13.22,25.72-19.96,6.9-5.47,14.66-8.32,23.17-8.55Z"/>
    </g>
  </g>
</svg>