<?xml version="1.0" encoding="UTF-8"?>
<svg id="Layer_2" data-name="Layer 2" xmlns="http://www.w3.org/2000/svg" viewBox="0 0 239.71 335.47">
  <defs>
    <style>
      .cls-1 {
        stroke-width: 0px;
      }
    </style>
  </defs>
  <g id="Layer_1-2" data-name="Layer 1">
    <g>
      <path class="cls-1" d="m.16,167.87c0-43.29.38-86.58-.16-129.86C-.26,16.5,16.97-.27,37.83,0c39.54.52,79.09.23,118.63.1,10.98-.04,20.13,3.69,27.83,11.45,14.59,14.69,29.24,29.33,43.93,43.93,7.75,7.69,11.51,16.83,11.49,27.82-.09,71.61-.04,143.21-.05,214.82,0,22.03-15.35,37.35-37.41,37.36-54.89.01-109.78,0-164.67,0-22.02,0-37.41-15.37-37.42-37.36-.01-43.41,0-86.83,0-130.24ZM143.88,24.08h-4.18c-33.68,0-67.35,0-101.03,0-10.04,0-14.58,4.56-14.59,14.64,0,86.06,0,172.12,0,258.18,0,10.07,4.55,14.64,14.58,14.64,54.13,0,108.26,0,162.39,0,10.13,0,14.67-4.5,14.67-14.55,0-65.61,0-131.21,0-196.82v-4.23c-11.92,0-23.37.01-34.82,0-21.51-.03-37-15.5-37.03-36.98-.02-11.46,0-22.92,0-34.88Zm64.92,47.85c-13.61-13.61-27.45-27.46-40.98-41,0,9.22-.13,19.19.05,29.15.11,6.32,4.64,11.5,10.88,11.74,10.3.39,20.62.11,30.05.11Z"/>
      <path class="cls-1" d="m138.57,196.63c0,14.47-.11,28.94.06,43.4.06,4.97-2.03,8.42-6.19,10.64-8.01,4.29-16.23,4.39-24.39.44-4.42-2.14-6.62-5.76-6.61-10.81.05-28.81,0-57.62.04-86.43,0-6.31,2.39-9.75,8.46-11.67,7.34-2.31,14.67-2.3,21.87.89,4.64,2.05,6.83,5.38,6.8,10.49-.1,14.34-.03,28.69-.03,43.03Z"/>
      <path class="cls-1" d="m120.23,84.72c7.13-.47,12.9,2.37,16.49,8.88,3.1,5.64,2.91,11.47-.39,17.05-3.94,6.67-11.98,9.74-20.89,8.15-7.73-1.39-12.93-6.44-14.5-14.1-1.99-9.72,5.72-19.57,15.65-19.97,1.12-.04,2.24,0,3.63,0Z"/>
    </g>
  </g>
</svg>