<?xml version="1.0" encoding="UTF-8"?>
<svg id="Layer_2" data-name="Layer 2" xmlns="http://www.w3.org/2000/svg" viewBox="0 0 191.66 119.74">
  <defs>
    <style>
      .cls-1 {
        stroke-width: 0px;
      }
    </style>
  </defs>
  <g id="Layer_1-2" data-name="Layer 1">
    <g>
      <path class="cls-1" d="m96.06,0c27.8,0,55.59-.02,83.39.01,6.2,0,11.29,4.33,12.07,10.07.83,6.04-2.58,11.56-8.38,13.32-1.4.42-2.94.51-4.41.51-55.34.02-110.68.03-166.03.01C5.17,23.92-.07,18.87,0,11.78.06,4.91,5.29.02,12.68.01c27.8-.02,55.59,0,83.39,0Z"/>
      <path class="cls-1" d="m95.9,47.91c27.92,0,55.84-.02,83.76.02,5.96,0,10.99,4.31,11.85,9.9.94,6.12-2.63,11.87-8.56,13.56-1.29.37-2.7.43-4.06.43-55.34.02-110.68.02-166.03.01C5.27,71.83,0,66.87,0,59.85c0-7.05,5.24-11.93,12.89-11.93,27.67-.01,55.34,0,83.01,0Z"/>
      <path class="cls-1" d="m95.94,95.82c27.92,0,55.84-.02,83.76.02,5.95,0,10.97,4.35,11.81,9.94.92,6.13-2.67,11.87-8.6,13.54-1.29.36-2.7.41-4.06.41-55.34.02-110.68.02-166.03.01-7.58,0-12.85-4.98-12.83-12.02.02-7.03,5.28-11.89,12.93-11.9,27.67-.01,55.34,0,83.01,0Z"/>
    </g>
  </g>
</svg>