<?xml version="1.0" encoding="UTF-8"?>
<svg id="Layer_2" data-name="Layer 2" xmlns="http://www.w3.org/2000/svg" viewBox="0 0 269.14 346.2">
  <defs>
    <style>
      .cls-1 {
        stroke-width: 0px;
      }
    </style>
  </defs>
  <g id="Layer_1-2" data-name="Layer 1">
    <g>
      <path class="cls-1" d="m0,134.81C-.06,70.82,47.05,14.02,109.88,2.33c73.2-13.62,143.11,33.82,156.81,107.06,7.27,38.87-1.73,74.42-25.03,106.29-28.98,39.65-58.06,79.21-87.12,118.8-8.2,11.17-20.21,14.77-31.41,8.97-3.42-1.77-6.79-4.47-9.03-7.58-30.87-42.72-61.83-85.39-92.13-128.51C6.81,185.8.35,161.11,0,134.81Zm133.4,186.87c.72-.83,1.32-1.43,1.82-2.11,29.72-40.34,59.72-80.49,89.05-121.12,18.48-25.6,24.71-54.6,18.51-85.54C230.43,51.32,171.09,13.16,109.88,26.81,33.59,43.82-1.03,134.9,44.68,198.21c19.27,26.68,38.38,53.47,57.58,80.2,10.32,14.37,20.67,28.72,31.13,43.26Z"/>
      <path class="cls-1" d="m134.53,76.4c33.15-.04,59.84,26.61,59.9,59.83.06,32.94-26.68,59.88-59.47,59.9-33.37.02-60.24-26.49-60.27-59.47-.03-33.54,26.47-60.22,59.84-60.26Zm-35.9,59.94c.06,19.7,16.36,35.89,36.1,35.85,19.44-.03,35.79-16.4,35.76-35.81-.03-19.86-16.48-36.2-36.29-36.04-19.45.15-35.63,16.53-35.56,36.01Z"/>
    </g>
  </g>
</svg>