<svg width="9" height="10" viewBox="0 0 9 10" fill="none" xmlns="http://www.w3.org/2000/svg">
<g clip-path="url(#clip0_391_561)">
<path d="M0.880808 6.5608C0.880808 6.63749 0.880808 6.69539 0.880808 6.7533C0.880808 8.71081 0.880808 7.54288 0.880808 9.50039C0.880808 9.73632 0.77496 9.90183 0.582676 9.97343C0.405408 10.0396 0.206531 9.98165 0.0962882 9.81066C0.0475762 9.73476 0.0215721 9.63498 0.00802061 9.54186C-0.00699587 9.4417 0.00435805 9.33723 0.00435805 9.23472C0.00435805 5.59789 0.00435805 5.0865 0.00435805 1.44968C0.00435805 0.707837 0.433243 0.153412 1.11301 0.0168598C1.18407 0.00238288 1.25842 0.000817814 1.33094 0.000817814C3.58451 3.52805e-05 5.83771 -0.000355986 8.09092 0.000426547C8.7597 0.000426547 9.17393 0.65619 8.92012 1.32056C8.69121 1.92037 8.1975 2.51627 7.95797 3.11139C7.91621 3.21508 7.91914 3.29959 7.95943 3.4021C8.1997 4.01248 8.69341 4.62442 8.92525 5.23871C9.12669 5.772 8.90657 6.32291 8.41762 6.50407C8.30444 6.54593 8.17662 6.55845 8.05539 6.55884C5.72454 6.56197 3.39332 6.56119 1.06247 6.56119C1.00826 6.56119 0.954059 6.56119 0.880808 6.56119V6.5608ZM0.880808 5.61902H8.11619C8.09421 5.55642 8.077 5.50203 8.05649 5.44921C7.82868 4.85957 7.34852 4.26837 7.11448 3.68186C6.99801 3.38997 6.99874 3.11139 7.11741 2.8199C7.34962 2.24825 7.82758 1.67192 8.05356 1.09715C8.0726 1.04902 8.08909 1.00011 8.10996 0.942597C8.06784 0.939858 8.04074 0.936728 8.01364 0.936728C5.79706 0.936728 3.58048 0.935946 1.3639 0.936728C1.06101 0.936728 0.881907 1.13275 0.881907 1.46103C0.881174 2.80816 0.88154 4.15568 0.88154 5.50281C0.88154 5.53646 0.88154 5.57011 0.88154 5.61863L0.880808 5.61902Z" fill="black"/>
</g>
<defs>
<clipPath id="clip0_391_561">
<rect width="9" height="10" fill="white"/>
</clipPath>
</defs>
</svg>
