<svg width="7" height="9" viewBox="0 0 7 9" fill="none" xmlns="http://www.w3.org/2000/svg">
<g clip-path="url(#clip0_311_5)">
<path d="M3.4866 8.99946C2.69375 8.99946 1.9006 8.99973 1.10774 8.99946C0.453501 8.9992 0.00265075 8.58657 0.00556888 7.98494C0.00731975 7.63083 -0.0239042 7.27458 0.0449636 6.92316C0.303218 5.60607 1.11737 4.71075 2.50728 4.31986C4.34278 3.80387 6.23139 4.74028 6.82552 6.41737C6.9297 6.71161 6.98748 7.01444 6.98923 7.32371C6.99069 7.61097 7.02074 7.90037 6.97347 8.18548C6.89351 8.6671 6.46513 8.99758 5.93112 8.99893C5.11637 9.00134 4.30163 8.99946 3.4866 8.99946Z" fill="#000000"/>
<path d="M1.40215 1.92731C1.40244 0.863651 2.33974 0.00107485 3.49649 9.96007e-07C4.65673 -0.00107286 5.59725 0.866336 5.59433 1.93456C5.59141 2.99714 4.6506 3.8581 3.49415 3.85676C2.33916 3.85542 1.40156 2.99069 1.40186 1.92731H1.40215Z" fill="#000000"/>
</g>
<defs>
<clipPath id="clip0_311_5">
<rect width="7" height="9" fill="white"/>
</clipPath>
</defs>
</svg>
