<svg width="10" height="10" viewBox="0 0 10 10" fill="none" xmlns="http://www.w3.org/2000/svg">
<g clip-path="url(#clip0_249_23)">
<path d="M5.00012 10.0002C7.76161 10.0002 10.0002 7.76161 10.0002 5.00012C10.0002 2.23863 7.76161 0 5.00012 0C2.23863 0 0 2.23863 0 5.00012C0 7.76161 2.23863 10.0002 5.00012 10.0002Z" fill="#000000"/>
<path d="M5.0036 1.99231C5.49793 1.9973 5.8232 2.21201 5.93876 2.62098C5.96206 2.70373 5.97823 2.79265 5.97514 2.87777C5.95041 3.55804 5.92022 4.23831 5.89216 4.91834C5.88146 5.17941 5.8691 5.44025 5.86268 5.70156C5.85055 6.18567 5.47558 6.55707 4.99623 6.5554C4.52306 6.55398 4.15404 6.18258 4.13668 5.70584C4.10387 4.80397 4.06654 3.90234 4.02541 3.00094C4.00163 2.48379 4.26532 2.10311 4.73159 2.01038C4.8198 1.99279 4.91277 1.99778 5.00337 1.99231H5.0036Z" fill="#FFFFFF"/>
<path d="M4.99231 8.66849C4.51748 8.66659 4.13657 8.27949 4.13942 7.80181C4.14227 7.3303 4.53674 6.94226 5.00848 6.94725C5.48188 6.95225 5.86422 7.34243 5.86137 7.81798C5.85852 8.29304 5.47285 8.67039 4.99231 8.66849Z" fill="#FFFFFF"/>
</g>
<defs>
<clipPath id="clip0_249_23">
<rect width="10" height="10" fill="white"/>
</clipPath>
</defs>
</svg>
